# xmcd
#
# Track frame offsets: 
#        150
#        16117
#        34420
#        52242
#        69240
#        84165
#        102265
#        119030
#        133920
#        153147
#
# Disc length: 2231 seconds
#
# Revision: 0
# Processed by: cddbd v1.4PL0 Copyright (c) Steve Scherf et al.
# Submitted via: ExactAudioCopy v0.90b4
#
DISCID=8108b50a
DTITLE=The Spencer Davis Group - Gold
DYEAR=1900
DGENRE=
TTITLE0=I'm A Man
TTITLE1=Don't Want You No More
TTITLE2=Blood Runs Hot
TTITLE3=Love Is On A Roll
TTITLE4=No Other Baby
TTITLE5=Crossfire
TTITLE6=It Must Be Love
TTITLE7=Mistakes
TTITLE8=Private Number
TTITLE9=Such A Good Woman (Proud In The Street)
EXTD=
EXTT0=
EXTT1=
EXTT2=
EXTT3=
EXTT4=
EXTT5=
EXTT6=
EXTT7=
EXTT8=
EXTT9=
PLAYORDER=
